# xmcd
#
# Track frame offsets: 
#        150
#        18160
#        34619
#        59373
#        81113
#        94836
#        114682
#        132311
#        145786
#        162407
#        180671
#
# Disc length: 2684 seconds
#
# Revision: 0
# Processed by: cddbd v1.5.1PL0 Copyright (c) Steve Scherf et al.
# Submitted via: ExactAudioCopy v0.95a5
#
DISCID=8d0a7a0b
DTITLE=Candyjane and the desertplants - 6cent
DYEAR=2002
DGENRE=Country
TTITLE0=Winter King
TTITLE1=Train Song
TTITLE2=Sister Jones
TTITLE3=Ode to Billy Joe
TTITLE4=I love my Bonanza
TTITLE5=I'm crying
TTITLE6=Death Valley Song
TTITLE7=Imagine that
TTITLE8=Time has told me
TTITLE9=31 floors
TTITLE10=Epilogue
EXTD=
EXTT0=
EXTT1=
EXTT2=
EXTT3=
EXTT4=
EXTT5=
EXTT6=
EXTT7=
EXTT8=
EXTT9=
EXTT10=
PLAYORDER=
